<mxfile host="65bd71144e">
    <diagram id="0C9LPtkzgQrAdEU2vfoF" name="Page-1">
        <mxGraphModel dx="1386" dy="666" grid="1" gridSize="10" guides="1" tooltips="1" connect="1" arrows="1" fold="1" page="1" pageScale="1" pageWidth="850" pageHeight="1100" math="0" shadow="0">
            <root>
                <mxCell id="0"/>
                <mxCell id="1" parent="0"/>
                <mxCell id="8" value="http://ics2o.mths.ca" style="swimlane;whiteSpace=wrap;html=1;" vertex="1" parent="1">
                    <mxGeometry x="45" y="60" width="760" height="480" as="geometry"/>
                </mxCell>
                <mxCell id="9" value="&lt;b&gt;&lt;font style=&quot;font-size: 26px;&quot;&gt;Random NASA Space Image&lt;/font&gt;&lt;/b&gt;" style="whiteSpace=wrap;html=1;" vertex="1" parent="8">
                    <mxGeometry x="200" y="30" width="360" height="60" as="geometry"/>
                </mxCell>
                <mxCell id="11" value="&lt;b style=&quot;&quot;&gt;&lt;font style=&quot;font-size: 23px;&quot;&gt;Explore a random photo from space!&lt;/font&gt;&lt;/b&gt;" style="text;html=1;align=center;verticalAlign=middle;resizable=0;points=[];autosize=1;strokeColor=none;fillColor=none;" vertex="1" parent="8">
                    <mxGeometry x="170" y="110" width="420" height="40" as="geometry"/>
                </mxCell>
                <mxCell id="12" value="&lt;b&gt;SHOW ANOTHER IMAGE&lt;/b&gt;" style="rounded=1;whiteSpace=wrap;html=1;" vertex="1" parent="8">
                    <mxGeometry x="305" y="310" width="150" height="40" as="geometry"/>
                </mxCell>
                <mxCell id="14" value="PHOTO HERE" style="whiteSpace=wrap;html=1;" vertex="1" parent="8">
                    <mxGeometry x="310" y="160" width="140" height="130" as="geometry"/>
                </mxCell>
            </root>
        </mxGraphModel>
    </diagram>
</mxfile>